# xmcd CD database file
# Copyright (C) 1997 Ti Kan
# 
# Track frame offsets:
#     183
#     13815
#     42325
#     47553
#     61530
#     63275
#     66990
#     92653
#     123613
#     127768
#     132638
#     139408
#     154300
#     158843
#     203390
#     213553
#     216923
#     234188
#     238538
#     267120
#     275808
#     281513
#     286360
#     287975
#     318363
#     322213
# 
# Disc length: 4503 seconds
# 
# Revision: 1
# Processed by: cddbd v1.4b41PL1 Copyright (c) Steve Scherf et al.
# Submitted via: DiscPlay 4.0.4
# 
DISCID=9611951a
DTITLE=Stephen Sondheim - Pacific Overtures - Original London Cast (1)
DYEAR=1900
DGENRE=
TTITLE0=Prologue
TTITLE1=THE ADVANTAGES OF FLOATING IN THE MIDDLE OF THE SEA
TTITLE2=Scene: Even in a land...
TTITLE3=Scene: Ther prisoner's name?
TTITLE4=Underscore
TTITLE5=Scene: What did the Councillors say?
TTITLE6=THERE IS NO OTHER WAY
TTITLE7=FOUR BLACK DRAGONS
TTITLE8=Scene: They come from a land...
TTITLE9=Scene: Please, I am here.
TTITLE10=Scene: Why do they laugh?
TTITLE11=Scene: Please! I must speak
TTITLE12=Disaster!
TTITLE13=CHRYSANTHEMUM TEA
TTITLE14=Scene: The Americans have not left!
TTITLE15=Scene: My lord governor of Uraga...
TTITLE16=POEMS
TTITLE17=Tamate's death
TTITLE18=WELCOME TO KANAGAWA
TTITLE19=Scene: The Americans insisted...
TTITLE20=Scene: From the personal journal...
TTITLE21=MARCH TO THE TREATY HOUSE
TTITLE22=Scene: No one knows what was said...
TTITLE23=SOMEONE IN A TREE
TTITLE24=Scene: Whatever happened...
TTITLE25=LION DANCE
EXTD=
EXTT0=
EXTT1=
EXTT2=
EXTT3=
EXTT4=
EXTT5=
EXTT6=
EXTT7=
EXTT8=
EXTT9=
EXTT10=
EXTT11=
EXTT12=
EXTT13=
EXTT14=
EXTT15=
EXTT16=
EXTT17=
EXTT18=
EXTT19=
EXTT20=
EXTT21=
EXTT22=
EXTT23=
EXTT24=
EXTT25=
PLAYORDER=
